<svg width="100%" viewBox="0 0 680 220" role="img" xmlns="http://www.w3.org/2000/svg">
  <title>Logo Fueling App</title>
  <desc>Logo moderno con gota de agua dinámica y tipografía deportiva</desc>

  <defs>
    <clipPath id="dropClip">
      <path d="M340 28 C340 28 300 80 300 118 C300 140 318 158 340 158 C362 158 380 140 380 118 C380 80 340 28 340 28 Z"/>
    </clipPath>
  </defs>

  <g transform="translate(340,110)">
    <circle cx="0" cy="8" r="82" fill="#00c8ff" opacity="0.05"/>
    <circle cx="0" cy="8" r="70" fill="#00c8ff" opacity="0.06"/>
    <ellipse cx="0" cy="68" rx="46" ry="7" fill="#001a2e" opacity="0.35"/>
    <path d="M0 -82 C0 -82 -42 -18 -42 22 C-42 46 -23 64 0 64 C23 64 42 46 42 22 C42 -18 0 -82 0 -82 Z" fill="#0a1929"/>
    <path d="M0 -82 C0 -82 -42 -18 -42 22 C-42 46 -23 64 0 64 C23 64 42 46 42 22 C42 -18 0 -82 0 -82 Z" fill="none" stroke="#00c8ff" stroke-width="2" opacity="0.9"/>
    <g clip-path="url(#dropClip)" transform="translate(-340,-110)">
      <path d="M298 148 Q315 138 330 148 Q345 158 362 148 Q375 140 382 148 L382 170 L298 170 Z" fill="#00c8ff" opacity="0.18"/>
      <path d="M295 155 Q312 143 330 155 Q348 167 365 155 Q375 148 383 155 L383 170 L295 170 Z" fill="#00c8ff" opacity="0.22"/>
      <path d="M296 162 Q314 150 332 162 Q350 174 368 162 L368 170 L296 170 Z" fill="#00c8ff" opacity="0.3"/>
    </g>
    <path d="M-14 -58 C-14 -58 -28 -28 -30 -8" stroke="white" stroke-width="3" stroke-linecap="round" fill="none" opacity="0.22"/>
    <circle cx="-10" cy="-52" r="4" fill="white" opacity="0.18"/>
    <line x1="-72" y1="-22" x2="-52" y2="-22" stroke="#00c8ff" stroke-width="2" stroke-linecap="round" opacity="0.5"/>
    <line x1="-80" y1="-8" x2="-54" y2="-8" stroke="#00c8ff" stroke-width="1.5" stroke-linecap="round" opacity="0.35"/>
    <line x1="-68" y1="8" x2="-50" y2="8" stroke="#00c8ff" stroke-width="1" stroke-linecap="round" opacity="0.25"/>
    <circle cx="0" cy="22" r="54" fill="none" stroke="#00c8ff" stroke-width="1" stroke-dasharray="4 6" opacity="0.3"/>
    <circle cx="24" cy="-60" r="4" fill="#00c8ff" opacity="0.7"/>
    <circle cx="32" cy="-48" r="2.5" fill="#1a6ee6" opacity="0.6"/>
    <circle cx="14" cy="-72" r="2" fill="#00c8ff" opacity="0.4"/>
  </g>

  <text x="430" y="93"
    font-family="Nunito, sans-serif"
    font-size="40"
    font-weight="900"
    letter-spacing="-0.5"
    fill="#e2eaf5">FUELING</text>

  <text x="432" y="128"
    font-family="Nunito, sans-serif"
    font-size="21"
    font-weight="700"
    letter-spacing="5"
    fill="#00c8ff">APP</text>

  <rect x="430" y="140" width="200" height="1.5" fill="#1e3a5f" rx="1"/>

  <text x="431" y="160"
    font-family="sans-serif"
    font-size="12"
    font-weight="400"
    letter-spacing="1.5"
    fill="#4a6380">HIDRATACIÓN · CIENCIA · RENDIMIENTO</text>

  <circle cx="420" cy="85" r="3" fill="#00c8ff" opacity="0.4"/>
  <circle cx="420" cy="118" r="2" fill="#1a6ee6" opacity="0.4"/>

</svg>
